<svg width="50" height="50" viewBox="0 0 50 50" fill="none" xmlns="http://www.w3.org/2000/svg">
<g clip-path="url(#clip0_14_2)">
<rect x="0.174011" y="0.173096" width="49.654" height="49.652" rx="24.826" fill="url(#paint0_radial_14_2)"/>
<path fill-rule="evenodd" clip-rule="evenodd" d="M25.001 0.173096C11.3115 0.173096 0.174011 11.3106 0.174011 24.9991C0.174011 38.6875 11.3115 49.8251 25.001 49.8251C38.6906 49.8251 49.828 38.6875 49.828 24.9991C49.828 11.3106 38.6906 0.173096 25.001 0.173096ZM25.001 36.0627C13.4005 36.0627 7.14529 25.2371 7.14529 25.2371C7.14529 25.2371 13.4005 14.4095 25.001 14.4095C36.6025 14.4095 42.8577 25.2371 42.8577 25.2371C42.8577 25.2371 36.6025 36.0627 25.001 36.0627Z" fill="#1F4662"/>
<path fill-rule="evenodd" clip-rule="evenodd" d="M25.0006 16.0044C19.9096 16.0044 15.7686 20.1464 15.7686 25.2364C15.7686 30.3264 19.9106 34.4674 25.0006 34.4674C30.0906 34.4674 34.2326 30.3254 34.2326 25.2364C34.2326 20.1464 30.0916 16.0044 25.0006 16.0044ZM25.0006 31.4684C21.5636 31.4684 18.7686 28.6724 18.7686 25.2374C18.7686 21.8004 21.5646 19.0054 25.0006 19.0054C28.4366 19.0054 31.2326 21.8014 31.2326 25.2374C31.2326 28.6724 28.4376 31.4684 25.0006 31.4684Z" fill="#1F4662"/>
<path fill-rule="evenodd" clip-rule="evenodd" d="M27.2978 25.6132C26.0688 25.6132 25.0728 24.6172 25.0728 23.3862C25.0728 22.2832 25.8818 21.3712 26.9398 21.1982C26.3508 20.9142 25.6988 20.7412 25.0008 20.7412C22.5208 20.7412 20.5068 22.7582 20.5068 25.2362C20.5068 27.7192 22.5208 29.7302 25.0008 29.7302C27.4818 29.7302 29.4948 27.7192 29.4948 25.2362C29.4948 24.8782 29.4418 24.5342 29.3628 24.2002C29.0378 25.0272 28.2378 25.6132 27.2978 25.6132Z" fill="#1F4662"/>
</g>
<defs>
<radialGradient id="paint0_radial_14_2" cx="0" cy="0" r="1" gradientUnits="userSpaceOnUse" gradientTransform="translate(25.001 24.9991) rotate(90) scale(24.826 24.827)">
<stop offset="0.739583" stop-color="#E1EFF9"/>
<stop offset="1" stop-color="#E1EFF9" stop-opacity="0"/>
</radialGradient>
<clipPath id="clip0_14_2">
<rect x="0.174011" y="0.173096" width="49.654" height="49.652" rx="24.826" fill="white"/>
</clipPath>
</defs>
</svg>
